<mxfile host="app.diagrams.net" modified="2024-06-18T16:55:12.021Z" agent="Mozilla/5.0 (Windows NT 10.0; Win64; x64) AppleWebKit/537.36 (KHTML, like Gecko) Chrome/126.0.0.0 Safari/537.36 Edg/126.0.0.0" version="24.5.4" etag="A52aP3zx7tgWXtoB-DkA" type="github">
  <diagram name="PÃ¡gina-1" id="-Nbuqv1Fr_TWL1hPOY4e">
    <mxGraphModel>
      <root>
        <mxCell id="0" />
        <mxCell id="1" parent="0" />
      </root>
    </mxGraphModel>
  </diagram>
</mxfile>
